<?xml version="1.0" standalone="no"?>
<!DOCTYPE svg PUBLIC "-//W3C//DTD SVG 20010904//EN"
 "http://www.w3.org/TR/2001/REC-SVG-20010904/DTD/svg10.dtd">
<svg version="1.0" xmlns="http://www.w3.org/2000/svg"
 width="2148.000000pt" height="2148.000000pt" viewBox="0 0 2148.000000 2148.000000"
 preserveAspectRatio="xMidYMid meet">
<metadata>
Created by potrace 1.14, written by Peter Selinger 2001-2017
</metadata>
<g transform="translate(0.000000,2148.000000) scale(0.100000,-0.100000)"
fill="#000000" stroke="none">
<path d="M9850 20726 c-47 -7 -94 -16 -105 -19 -11 -4 -189 -11 -395 -16 -325
-9 -555 -26 -610 -45 -8 -3 -99 -10 -202 -16 -149 -8 -201 -15 -260 -34 -61
-20 -106 -26 -283 -34 -164 -8 -223 -14 -270 -30 -41 -14 -111 -23 -223 -31
-124 -8 -175 -16 -209 -31 -30 -13 -85 -23 -166 -30 -121 -10 -166 -18 -203
-38 -11 -6 -78 -17 -149 -25 -72 -9 -153 -24 -180 -35 -28 -11 -95 -25 -150
-31 -58 -7 -115 -20 -137 -31 -23 -12 -76 -23 -140 -30 -63 -6 -118 -18 -144
-30 -23 -11 -82 -27 -132 -35 -50 -8 -108 -24 -129 -34 -21 -11 -73 -25 -116
-30 -42 -6 -99 -21 -125 -35 -26 -13 -74 -26 -107 -30 -33 -3 -82 -17 -110
-30 -27 -14 -77 -27 -110 -31 -35 -3 -76 -15 -100 -29 -22 -13 -69 -28 -105
-34 -36 -5 -87 -22 -114 -36 -27 -14 -60 -26 -73 -26 -26 0 -88 -24 -111 -43
-8 -6 -46 -17 -84 -24 -38 -6 -78 -19 -87 -27 -10 -9 -48 -25 -85 -35 -37 -10
-74 -25 -84 -34 -9 -8 -42 -20 -73 -26 -31 -7 -71 -23 -90 -36 -18 -14 -40
-25 -48 -25 -32 0 -93 -22 -110 -39 -10 -10 -41 -24 -69 -31 -28 -6 -63 -23
-77 -36 -14 -13 -34 -24 -44 -24 -10 0 -36 -12 -57 -26 -21 -15 -55 -31 -74
-37 -19 -5 -47 -20 -62 -32 -15 -13 -42 -26 -60 -30 -18 -4 -44 -18 -58 -30
-14 -13 -47 -29 -73 -36 -26 -6 -53 -19 -60 -29 -7 -9 -36 -25 -65 -34 -29
-10 -56 -26 -62 -35 -5 -10 -27 -23 -50 -30 -23 -7 -50 -21 -60 -31 -11 -11
-35 -26 -55 -34 -19 -8 -38 -22 -41 -30 -3 -9 -23 -20 -44 -26 -20 -5 -54 -24
-75 -40 -21 -17 -44 -30 -51 -30 -8 0 -19 -9 -26 -21 -7 -11 -37 -31 -66 -44
-28 -13 -52 -29 -52 -35 0 -6 -16 -18 -35 -25 -19 -8 -39 -24 -44 -34 -6 -10
-24 -23 -40 -29 -16 -6 -32 -19 -35 -30 -4 -11 -20 -25 -35 -30 -16 -6 -32
-19 -35 -30 -4 -11 -19 -25 -35 -32 -16 -6 -34 -22 -41 -36 -8 -13 -19 -24
-26 -24 -8 0 -23 -13 -36 -30 -12 -16 -27 -30 -34 -30 -7 0 -19 -9 -27 -20 -8
-11 -40 -43 -73 -71 -32 -29 -65 -62 -71 -75 -7 -12 -22 -25 -33 -29 -11 -3
-23 -17 -26 -29 -3 -13 -17 -28 -30 -35 -13 -6 -29 -22 -36 -36 -6 -13 -20
-27 -30 -31 -11 -3 -26 -21 -35 -40 -9 -19 -23 -34 -30 -34 -7 0 -19 -13 -27
-28 -8 -16 -31 -48 -50 -71 -20 -24 -36 -49 -36 -57 0 -8 -11 -19 -24 -24 -13
-5 -28 -19 -32 -32 -4 -13 -22 -41 -40 -62 -19 -22 -34 -47 -34 -57 0 -10 -14
-27 -30 -39 -17 -12 -30 -29 -30 -39 0 -10 -16 -36 -35 -58 -19 -23 -35 -48
-35 -57 0 -8 -13 -29 -30 -46 -16 -16 -34 -47 -40 -69 -6 -22 -21 -46 -35 -55
-17 -11 -27 -29 -31 -57 -5 -27 -15 -46 -31 -56 -14 -10 -28 -33 -35 -60 -6
-25 -22 -55 -35 -68 -16 -14 -29 -41 -34 -71 -5 -26 -18 -58 -30 -70 -11 -12
-26 -44 -33 -71 -7 -27 -25 -61 -39 -77 -14 -15 -29 -42 -32 -59 -4 -18 -20
-51 -35 -75 -22 -33 -29 -59 -35 -122 -5 -62 -11 -83 -25 -90 -23 -12 -29 -30
-39 -110 -6 -43 -17 -78 -34 -103 -16 -24 -27 -58 -32 -96 -5 -42 -14 -68 -30
-85 -13 -14 -26 -39 -29 -56 -3 -16 -9 -44 -12 -60 -3 -17 -17 -44 -30 -60
-17 -20 -29 -52 -38 -102 -7 -40 -20 -84 -29 -98 -8 -14 -23 -67 -31 -119 -11
-67 -21 -100 -36 -116 -14 -15 -26 -48 -33 -92 -7 -41 -21 -80 -34 -96 -23
-30 -28 -63 -37 -231 -5 -81 -11 -109 -32 -149 -18 -36 -28 -76 -35 -145 -6
-54 -18 -110 -28 -131 -22 -42 -27 -74 -41 -231 -8 -80 -17 -128 -32 -159 -17
-35 -23 -75 -31 -195 -8 -126 -13 -159 -33 -201 -20 -42 -26 -76 -35 -209 -9
-141 -13 -164 -37 -210 -27 -51 -27 -52 -32 -321 -5 -253 -6 -273 -27 -310
-30 -57 -32 -72 -43 -424 -9 -239 -15 -321 -26 -342 -33 -65 -37 -193 -41
-1309 -4 -1215 3 -1499 38 -1602 17 -52 22 -100 30 -298 17 -463 14 -430 43
-490 23 -49 26 -68 26 -165 1 -169 16 -303 40 -358 18 -39 22 -74 26 -195 6
-162 16 -222 44 -262 15 -21 21 -56 28 -183 8 -126 14 -165 31 -201 13 -25 26
-81 32 -132 11 -105 15 -120 41 -156 13 -19 22 -57 29 -120 6 -59 18 -111 34
-145 17 -37 26 -79 30 -141 10 -141 15 -169 38 -198 18 -24 24 -50 33 -157 10
-108 15 -132 33 -151 17 -19 41 -102 41 -148 0 -3 11 -19 24 -35 17 -20 27
-50 35 -103 7 -45 20 -86 32 -104 15 -19 26 -59 35 -123 11 -85 22 -116 47
-134 5 -3 13 -42 18 -85 6 -44 18 -90 27 -103 33 -46 42 -66 42 -98 0 -41 16
-84 39 -103 10 -8 23 -34 30 -58 7 -24 22 -49 36 -58 15 -10 26 -29 30 -56 4
-23 18 -52 32 -66 16 -16 27 -43 33 -77 8 -48 16 -68 57 -139 7 -11 13 -36 13
-54 0 -21 9 -41 25 -58 13 -13 30 -43 36 -67 7 -23 25 -55 40 -72 15 -16 31
-47 34 -68 5 -23 16 -44 30 -53 14 -9 27 -33 34 -59 6 -24 21 -52 35 -62 13
-11 30 -39 37 -62 7 -24 23 -50 36 -58 13 -8 23 -21 23 -29 0 -7 14 -29 30
-48 17 -18 37 -49 45 -68 8 -19 26 -43 40 -52 14 -9 25 -25 25 -34 0 -10 13
-31 30 -47 16 -15 34 -43 40 -61 6 -18 20 -36 31 -39 11 -4 26 -22 34 -41 8
-19 21 -34 29 -34 9 0 22 -13 31 -29 8 -16 24 -32 35 -36 11 -4 27 -20 35 -36
9 -16 22 -29 31 -29 8 0 23 -14 32 -30 9 -17 25 -33 35 -36 9 -3 17 -10 17
-15 0 -6 64 -73 142 -150 97 -96 151 -142 171 -146 17 -3 33 -15 39 -29 6 -12
23 -28 39 -34 16 -7 31 -21 35 -32 3 -11 19 -24 34 -30 16 -5 36 -20 45 -34 8
-13 22 -24 30 -24 7 0 23 -13 35 -29 11 -17 29 -32 39 -36 10 -3 23 -17 29
-30 6 -14 17 -25 24 -25 7 0 33 -16 57 -35 25 -20 56 -38 70 -42 14 -3 38 -19
53 -35 14 -15 34 -28 45 -28 10 0 36 -14 57 -30 22 -17 45 -30 51 -30 7 0 29
-13 48 -29 20 -16 56 -34 81 -40 24 -6 46 -17 49 -25 3 -8 30 -22 59 -31 29
-10 62 -28 74 -40 12 -13 39 -25 66 -29 26 -4 54 -16 64 -27 9 -11 41 -26 70
-35 29 -8 58 -22 64 -30 7 -8 38 -22 69 -30 30 -9 67 -25 81 -35 14 -11 52
-24 85 -30 33 -6 69 -19 80 -29 25 -23 68 -40 104 -40 15 0 42 -11 60 -24 18
-13 60 -29 97 -36 35 -7 75 -21 88 -31 13 -10 48 -24 78 -31 29 -7 64 -20 78
-30 27 -19 97 -37 144 -38 15 0 41 -11 56 -24 19 -15 53 -28 96 -35 37 -7 80
-21 94 -31 15 -11 60 -24 101 -31 41 -6 94 -21 119 -34 25 -13 70 -27 100 -30
30 -4 80 -17 110 -30 30 -13 92 -28 138 -34 54 -7 92 -17 110 -31 17 -12 57
-24 107 -31 44 -6 100 -20 125 -30 25 -11 96 -27 158 -35 70 -10 125 -22 145
-34 21 -13 68 -23 132 -30 55 -6 122 -20 148 -31 27 -11 90 -25 140 -30 51 -5
117 -18 147 -29 68 -23 88 -27 224 -40 60 -6 121 -17 135 -24 37 -19 79 -25
249 -36 107 -7 169 -16 214 -31 51 -17 102 -23 263 -30 111 -5 225 -15 255
-23 118 -31 175 -36 470 -45 258 -8 317 -13 385 -31 110 -29 458 -39 1435 -40
421 0 794 -4 830 -8 36 -4 83 -4 105 0 22 4 141 7 265 8 366 1 745 17 835 36
130 26 189 32 400 38 275 9 341 15 409 38 46 15 105 21 270 28 195 9 275 19
301 40 6 5 92 16 191 24 117 11 199 23 235 36 31 10 98 22 150 26 59 4 120 15
164 31 50 17 107 27 197 33 100 7 138 14 180 33 41 19 76 26 155 30 75 5 116
12 160 30 36 16 96 29 157 35 60 7 113 19 136 31 21 11 76 25 122 31 46 6 103
21 128 32 25 11 76 24 115 29 38 5 87 18 110 30 22 11 79 27 127 35 48 7 98
20 111 29 13 8 59 22 101 30 43 8 96 26 119 39 23 13 67 27 97 31 30 3 75 17
100 30 25 13 63 26 85 30 22 3 63 17 90 30 28 13 76 29 107 35 31 6 67 19 80
29 13 10 48 24 78 31 30 7 66 21 80 31 14 9 55 25 90 34 36 9 74 24 85 34 11
10 45 23 75 30 30 6 64 20 75 30 11 10 43 24 70 31 28 7 59 21 70 30 11 10 43
25 72 34 28 10 57 24 63 32 7 7 35 21 62 29 27 8 61 23 76 33 15 11 45 25 67
32 22 7 47 20 55 30 8 10 38 25 67 34 28 10 57 23 63 31 6 8 33 22 58 31 26
10 58 28 73 41 14 12 32 23 41 23 8 0 33 13 56 30 22 16 52 32 67 36 14 3 33
16 43 29 10 12 28 26 41 30 26 8 100 59 142 97 14 13 38 29 53 36 14 6 29 19
32 27 4 9 22 22 40 30 19 8 34 19 34 24 0 6 19 23 43 37 54 35 117 85 216 174
21 19 45 41 52 47 48 43 145 142 189 194 25 28 60 67 78 85 17 18 32 40 32 47
0 8 11 19 25 25 14 6 25 16 25 22 0 6 17 28 37 50 73 76 112 129 113 152 0 9
9 20 21 23 11 4 27 22 35 41 8 18 23 38 34 44 10 6 27 33 37 60 10 28 24 50
31 50 7 0 22 21 33 46 10 26 31 60 44 76 14 16 25 35 25 42 0 7 13 30 30 51
16 20 34 52 39 70 4 17 23 51 40 75 17 24 31 51 31 61 0 10 11 29 24 42 14 14
30 44 36 68 7 24 24 63 40 86 15 24 30 64 34 91 4 29 14 54 26 64 10 10 27 43
36 75 9 32 27 73 40 93 12 19 26 53 30 75 3 22 19 59 34 83 15 23 31 63 35 90
3 26 17 63 30 82 14 20 28 62 34 99 7 40 18 72 31 86 12 13 27 52 35 94 9 40
25 85 36 100 11 15 24 56 30 96 5 39 23 97 39 130 18 39 31 85 35 130 5 52 13
77 31 98 13 16 24 34 25 40 4 89 20 172 42 218 19 38 29 78 33 134 5 57 14 92
30 121 17 29 27 68 35 145 7 65 20 125 35 161 18 42 26 89 33 180 7 98 14 132
31 161 18 31 25 67 36 198 11 124 19 170 36 202 17 35 22 70 30 217 8 139 14
184 30 220 26 57 35 125 43 335 5 130 12 192 31 263 21 81 25 131 34 370 9
263 16 335 40 427 14 53 29 521 33 1015 3 355 5 400 22 449 16 47 17 61 6 105
-27 116 -30 153 -31 421 -1 348 -16 762 -29 835 -15 82 -40 394 -45 567 -4
127 -9 164 -30 225 -21 62 -26 104 -35 269 -8 158 -14 207 -31 255 -16 44 -25
104 -35 236 -10 145 -17 185 -35 223 -18 38 -24 77 -35 228 -10 147 -17 193
-34 232 -16 36 -24 84 -32 180 -7 89 -16 143 -28 170 -26 54 -29 66 -41 170
-8 63 -18 100 -34 125 -14 21 -25 59 -30 95 -3 33 -18 83 -32 110 -26 50 -27
56 -44 317 0 3 -11 19 -24 35 -19 23 -26 47 -34 128 -8 73 -17 107 -33 128
-13 18 -26 60 -34 112 -14 85 -27 121 -45 127 -6 2 -16 38 -24 81 -9 53 -20
85 -35 101 -19 20 -40 103 -41 162 0 6 -11 22 -24 35 -16 16 -26 41 -31 79 -9
68 -21 100 -44 121 -10 10 -21 36 -25 59 -4 25 -16 50 -31 64 -13 12 -29 44
-36 72 -6 27 -23 64 -36 82 -14 18 -28 56 -33 89 -5 31 -21 72 -34 92 -14 20
-30 60 -36 88 -8 35 -20 59 -36 72 -13 10 -24 26 -24 35 0 22 -29 79 -46 89
-7 4 -20 29 -29 56 -9 27 -24 56 -35 66 -10 9 -24 39 -30 66 -7 27 -21 55 -31
62 -10 8 -25 29 -33 49 -8 19 -22 41 -32 49 -9 7 -25 33 -35 56 -10 23 -27 46
-38 52 -11 6 -25 29 -31 51 -6 21 -22 48 -35 59 -14 10 -30 33 -36 50 -6 16
-19 33 -29 36 -10 3 -24 22 -31 42 -6 20 -26 52 -44 71 -18 19 -44 49 -58 66
-14 17 -42 49 -62 70 -19 22 -35 43 -35 47 0 5 -20 31 -45 59 -25 28 -45 55
-45 60 0 5 -9 12 -20 15 -11 4 -27 19 -35 35 -8 16 -23 31 -33 34 -11 4 -24
18 -30 31 -7 14 -23 30 -36 35 -13 5 -27 18 -31 29 -3 12 -17 24 -31 27 -13 3
-33 19 -44 35 -11 15 -29 30 -39 34 -10 3 -23 17 -29 30 -6 14 -17 25 -23 25
-6 0 -29 15 -50 33 -68 58 -137 107 -151 107 -8 0 -21 11 -28 25 -7 13 -25 28
-41 34 -15 5 -32 18 -38 30 -6 11 -21 23 -32 26 -12 4 -42 22 -66 41 -25 19
-53 34 -63 34 -10 0 -25 9 -33 20 -7 10 -33 28 -58 38 -24 11 -52 29 -63 40
-10 12 -31 24 -47 27 -16 4 -33 15 -39 24 -5 10 -31 26 -57 36 -26 10 -61 29
-76 42 -16 12 -36 23 -45 23 -9 0 -37 14 -62 30 -25 16 -54 30 -66 30 -12 0
-39 12 -60 26 -21 15 -59 34 -83 42 -25 8 -60 26 -79 39 -19 12 -42 23 -51 23
-10 0 -32 11 -51 25 -19 14 -52 30 -74 36 -22 6 -51 20 -65 30 -13 10 -46 26
-73 34 -27 8 -64 23 -82 34 -18 11 -57 26 -86 32 -29 6 -62 20 -73 30 -11 10
-44 23 -74 29 -30 7 -70 22 -89 35 -21 14 -58 26 -92 30 -31 4 -66 15 -77 25
-23 20 -78 40 -110 40 -12 0 -43 11 -69 25 -29 16 -76 28 -131 35 -53 7 -102
19 -129 34 -24 13 -70 27 -103 31 -32 4 -76 18 -98 31 -22 12 -60 26 -85 30
-25 3 -63 17 -86 30 -22 12 -72 28 -110 35 -38 6 -86 20 -108 31 -27 14 -74
22 -165 29 -94 7 -132 14 -151 27 -34 25 -53 31 -127 42 -35 5 -83 18 -106 29
-24 11 -83 24 -140 31 -60 6 -114 18 -138 30 -28 15 -75 23 -171 31 -73 6
-150 17 -173 25 -65 25 -103 32 -229 44 -66 6 -125 15 -132 21 -24 20 -83 30
-241 39 -96 6 -193 18 -239 30 -50 13 -140 24 -256 30 -189 10 -215 14 -265
36 -18 8 -88 19 -155 25 -68 5 -175 14 -238 20 -63 6 -146 13 -185 15 -38 2
-144 9 -235 14 -91 6 -223 12 -295 15 -325 12 -414 18 -465 33 -48 13 -168 16
-890 18 -638 2 -855 0 -920 -10z m1835 -4550 c99 -8 286 -22 415 -30 129 -9
255 -20 280 -25 25 -6 86 -13 135 -16 87 -6 202 -20 410 -50 55 -8 118 -17
140 -19 22 -3 47 -7 55 -9 26 -6 93 -17 185 -33 84 -14 139 -24 305 -59 36 -7
103 -21 150 -30 47 -9 110 -23 140 -30 30 -8 120 -30 200 -50 80 -19 177 -44
215 -55 39 -11 90 -25 115 -30 25 -6 54 -14 65 -19 11 -5 54 -19 95 -31 41
-12 82 -26 90 -30 9 -4 31 -11 50 -15 19 -4 40 -11 45 -15 6 -4 26 -13 45 -18
37 -11 92 -30 125 -43 11 -4 45 -18 75 -30 30 -12 69 -28 87 -35 17 -8 34 -14
37 -14 8 0 103 -43 256 -117 123 -59 338 -181 366 -207 6 -6 22 -18 34 -26
143 -97 347 -284 462 -425 364 -446 670 -1175 839 -2000 68 -330 153 -975 179
-1353 13 -200 13 -781 -1 -997 -28 -443 -59 -788 -79 -882 -6 -23 -14 -82 -20
-130 -5 -48 -19 -137 -31 -198 -11 -60 -25 -135 -30 -166 -4 -31 -18 -99 -30
-150 -12 -52 -27 -121 -34 -154 -28 -128 -72 -297 -106 -405 -4 -14 -17 -59
-29 -100 -12 -41 -27 -91 -34 -110 -23 -62 -37 -104 -47 -140 -6 -19 -20 -55
-31 -80 -11 -25 -31 -74 -45 -109 -39 -103 -153 -340 -224 -468 -224 -396
-543 -735 -889 -940 -136 -81 -372 -199 -540 -269 -85 -36 -164 -69 -175 -73
-11 -5 -49 -19 -84 -32 -117 -44 -105 58 -111 -987 -5 -867 -6 -909 -24 -942
-54 -100 -127 -149 -231 -158 -82 -6 -135 12 -271 95 -124 74 -296 175 -464
270 -128 73 -156 89 -455 263 -294 171 -428 250 -591 346 -192 114 -251 144
-283 144 -18 0 -31 9 -42 29 -9 15 -41 42 -70 58 -30 17 -94 54 -144 83 -49
29 -128 75 -175 103 -198 116 -246 129 -402 104 -166 -27 -598 -40 -1058 -34
-408 6 -564 13 -970 42 -113 8 -241 17 -285 20 -122 9 -260 23 -480 51 -110
13 -240 29 -290 35 -49 6 -162 24 -250 39 -88 15 -182 31 -210 35 -145 19
-660 134 -885 197 -843 237 -1415 519 -1808 893 -142 135 -245 258 -344 410
-227 350 -381 695 -527 1185 -134 449 -223 884 -261 1281 -6 63 -16 155 -21
204 -57 520 -72 749 -72 1110 0 305 12 559 38 855 9 91 18 194 21 230 15 194
95 683 153 935 67 295 192 713 257 862 8 17 14 35 14 40 0 34 187 429 264 557
24 39 46 78 50 86 48 104 219 323 366 470 284 284 581 464 1080 652 584 220
1183 375 1905 492 335 54 801 112 1015 126 85 6 211 15 280 20 108 8 389 23
640 34 215 9 1307 -4 1475 -18z m9552 -5453 c-2 -27 -3 -5 -3 47 0 52 1 74 3
48 2 -27 2 -69 0 -95z m-11623 -9861 c3 -5 -1 -9 -9 -9 -8 0 -12 4 -9 9 3 4 7
8 9 8 2 0 6 -4 9 -8z"/>
<path d="M7508 11539 c-78 -18 -200 -72 -275 -121 -160 -104 -281 -264 -344
-453 -32 -96 -33 -107 -33 -255 -1 -153 0 -156 36 -265 109 -320 373 -533 715
-577 375 -48 772 204 891 567 51 155 61 258 37 392 -62 351 -295 611 -630 704
-55 15 -99 19 -215 18 -80 -1 -162 -5 -182 -10z"/>
<path d="M10481 11534 c-294 -79 -508 -285 -607 -584 -26 -78 -28 -97 -28
-240 -1 -153 0 -157 36 -261 59 -172 144 -296 283 -415 48 -40 222 -121 315
-146 120 -32 335 -32 431 -1 196 64 333 157 445 303 77 101 98 141 139 264 69
206 51 432 -51 641 -33 68 -119 183 -178 238 -91 84 -246 166 -382 202 -77 20
-327 20 -403 -1z"/>
<path d="M13495 11543 c-261 -58 -492 -240 -596 -468 -60 -133 -71 -181 -76
-335 -6 -169 5 -227 65 -367 107 -245 306 -414 572 -485 120 -32 291 -31 410
1 591 161 830 842 467 1331 -111 150 -296 272 -478 315 -60 14 -312 20 -364 8z"/>
</g>
</svg>
